PathFileType	4	(X/Y/Z)	C:\Users\WrightLab\Desktop\Jo\P2_Trial23.trc
DataRate	CameraRate	NumFrames	NumMarkers	Units	OrigDataRate	OrigDataStartFrame	OrigNumFrames
100.00	100.00	      17	19	mm	100.00	609	      1217
Frame#	Time	Headset_Front			Headset_Back			Headset_Left			Headset_Right			Left_Shoulder			Right_Shoulder			Sternum			C7			Left Elbow			Right Elbow			Left Wrist			Right Wrist			Left ASIS			Right ASIS			S2			Left Knee			Right Knee			Left Ankle			Right Ankle			
		X1	Y1	Z1	X2	Y2	Z2	X3	Y3	Z3	X4	Y4	Z4	X5	Y5	Z5	X6	Y6	Z6	X7	Y7	Z7	X8	Y8	Z8	X9	Y9	Z9	X10	Y10	Z10	X11	Y11	Z11	X12	Y12	Z12	X13	Y13	Z13	X14	Y14	Z14	X15	Y15	Z15	X16	Y16	Z16	X17	Y17	Z17	X18	Y18	Z18	X19	Y19	Z19	

609	6.080	-109.74409	1423.81555	445.68842	-92.17120	1681.18335	617.59235	-204.77284	1556.01111	580.04816	0.18494	1522.97864	484.09390	-193.31258	1441.79248	745.09253	97.59892	1441.67456	591.39606	-73.66003	1320.86243	614.29785	16.82422	1441.35706	761.18634	-278.84647	1087.12830	804.32813	200.93967	1114.50476	596.42322	-302.28976	853.18884	828.52228	192.76892	862.94238	545.44165	-134.65118	1040.52405	622.79962	-17.14356	1009.89673	564.72070	13.00628	947.87805	832.27655	-253.01900	475.83395	659.91748	162.55472	527.81195	647.06909	-273.89923	125.13361	594.67688	242.66248	154.18480	815.94556	
610	6.090	-113.89983	1424.43860	440.70731	-97.08921	1682.00586	612.46729	-209.82426	1556.71387	575.35773	-4.70322	1524.12854	472.05362	-197.16541	1442.80737	740.49408	92.99872	1442.08887	586.64386	-77.86395	1321.60242	609.12567	13.04293	1442.30774	756.18292	-283.55826	1088.57507	798.51349	195.30537	1115.49915	590.15192	-306.27661	853.58435	819.09332	186.09010	862.91736	539.81360	-138.87914	1041.03760	618.11078	-21.92220	1010.93890	559.41956	8.95441	948.94855	827.90668	-259.95892	478.26520	656.00958	150.78549	527.69104	636.51587	-272.21515	126.64687	596.70007	231.20287	162.64075	807.14398	
611	6.100	-118.01009	1425.10840	435.59888	-101.06508	1682.44849	607.51160	-214.11557	1557.43237	570.30347	-7.88702	1523.90308	477.18790	-200.88191	1443.90125	736.06482	88.52690	1442.85620	580.53168	-82.25155	1322.29761	604.41541	9.36446	1443.52014	750.87622	-288.01285	1089.81812	792.29156	189.70717	1115.82471	584.02533	-311.96478	852.59442	808.40045	178.84518	863.86194	533.83807	-143.26433	1042.20825	614.23975	-25.44271	1010.78296	556.65698	5.29911	949.65302	824.24469	-266.58786	480.28424	652.69269	138.44768	528.38806	625.49707	-271.90887	128.17339	596.43427				
612	6.110	-122.05188	1426.07898	430.29996	-105.08530	1683.50891	602.52429	-217.84517	1557.61560	565.22693	-12.47598	1525.87024	462.63712	-204.73564	1445.09192	731.55701	84.40190	1443.34595	575.95514	-86.21723	1323.11096	599.66858	5.89878	1444.28210	745.65814	-292.42978	1091.30627	786.30634	184.71753	1116.43652	578.23737	-317.75568	854.97644	798.95135	172.47267	864.86615	527.90552	-147.26738	1043.13452	610.36633	-29.10443	1011.46442	552.67102	1.56760	950.84601	820.36639	-273.45703	481.89346	649.91986	127.58950	529.27631	614.16681	-267.77728	128.50078	600.66510				
613	6.120	-126.20332	1426.95984	424.99957	-109.04204	1684.08350	597.43329	-221.41664	1558.50720	560.18799	-16.70152	1526.54382	457.49347	-208.16289	1446.44727	726.60040	80.44452	1444.03113	570.59253	-90.61848	1324.01917	595.57721	1.80419	1445.31580	740.88831	-296.59296	1093.19641	780.30194	179.17964	1117.20691	572.49243	-323.81097	856.72974	789.93896	165.92821	865.75665	521.98663	-151.15419	1044.13892	605.17365	-33.52114	1012.36139	548.49780	-2.23206	951.63544	815.21289	-278.67041	482.29099	647.66693	116.01317	530.11224	605.01239	-265.83035	128.58049	602.25922				
614	6.130	-130.08112	1427.95093	419.71408	-112.99254	1684.60376	592.90833	-225.70979	1559.51843	555.18884	-20.34753	1527.31348	458.59485	-211.49425	1447.56213	721.63837	76.59856	1445.27551	564.53442	-94.30942	1324.81494	591.33051	-1.31311	1446.35364	735.55267	-301.00089	1094.22363	774.85718	174.36850	1117.59119	566.38605	-329.05063	859.08038	780.86615	159.68074	866.69177	516.60602	-154.55191	1044.54675	602.11627	-36.67409	1013.27698	544.37219	-6.10613	951.51373	811.17767	-284.05469	481.61398	645.49701	104.88850	531.04413	594.38281	-265.14618	129.01697	604.39056				
615	6.140	-132.63699	1429.05725	416.21460	-115.71179	1685.34790	587.84015	-229.52553	1560.58093	550.46838	-23.61694	1527.83398	454.54208	-215.03619	1449.06494	717.27734	72.42040	1445.66296	559.64233	-97.89676	1325.68433	586.51941	-4.61257	1447.29822	730.27649	-305.21869	1095.81836	768.59814	169.28313	1118.31287	560.40063	-335.28458	862.03082	771.32935	154.19490	867.96533	510.89377	-157.77289	1045.80725	597.12689	-39.68672	1013.80145	541.27008	-9.09537	952.33386	806.71326	-287.66580	480.98010	644.67828	94.67597	533.16370	583.98273	-264.35507	128.59857	606.34851				
616	6.150	-136.31732	1430.01575	411.17294	-119.38682	1686.03906	582.88934	-232.79265	1561.29846	545.50024	-27.79750	1528.19812	441.30258	-218.00101	1450.57288	712.10547	68.63136	1446.15906	554.53510	-100.98294	1326.03040	581.92926	-7.81265	1448.49426	725.70947	-309.12775	1097.40247	763.30334	163.44679	1118.82019	554.93427	-340.32516	864.59900	761.87671	148.94930	869.11298	505.61526	-160.53540	1047.07373	593.68384	-42.81006	1015.00653	537.92737	-12.09530	953.10199	802.93018	-291.27692	480.84106	644.66034	84.76192	534.85529	573.27020	-263.77966	128.33954	608.52893				
617	6.160	-139.81975	1430.57959	406.46017	-121.80962	1686.72778	577.86749	-236.12691	1562.12793	540.77521	-31.43260	1529.50281	435.55667	-221.28642	1451.77612	707.41583	65.53589	1447.27710	549.26233	-104.32842	1327.23816	577.97729	-10.83664	1449.65735	720.68274	-313.07321	1098.60425	757.43872	159.09845	1119.89380	548.52460	-345.56738	867.22314	753.00104	142.04153	869.73883	497.20291	-163.42786	1047.65308	591.27496	-46.53932	1016.41010	531.58649	-14.77602	953.67084	799.34662	-295.18491	480.59314	644.04755	74.70535	538.33240	562.60864	-263.93777	127.72877	609.85846	-110.52379	1006.50262	822.26141	
618	6.170	-143.08078	1431.47974	401.10455	-126.11116	1687.91455	573.52344	-238.02119	1562.76306	535.50201	-33.64137	1531.34143	432.56781	-224.31207	1452.99292	702.35474	62.09557	1447.34680	544.68927	-107.37559	1327.44946	573.25232	-13.64920	1450.31921	715.89362	-317.01276	1100.52209	751.97620	155.13150	1120.50708	542.89417	-349.31198	868.87689	742.87531	136.86086	870.67603	490.74359	-166.04655	1048.50696	586.99011	-49.32031	1017.38654	528.74695	-17.72623	954.59894	795.86285	-297.41074	479.87527	644.37885	65.49148	539.79071	553.19678	-264.24298	126.80843	611.63623				
619	6.180	-147.36743	1432.13123	394.39316	-127.43477	1687.97546	567.62781	-242.09911	1563.84839	530.69708	-37.01348	1531.62317	426.60629	-227.08055	1454.18262	697.59448	59.04599	1448.06091	539.68689	-110.65980	1328.17859	568.88715	-17.12397	1451.58777	711.35980	-320.31677	1101.72058	746.05139	150.55919	1121.19507	537.41919	-354.80618	873.71844	733.92480	131.97507	871.52936	484.43051	-169.01825	1049.55383	583.51141	-52.10231	1017.89117	525.13110	-19.27006	956.28137	793.28870	-299.66849	480.09073	646.62646	56.60375	542.51886	543.46198	-265.12106	125.92110	613.29950				
620	6.190	-148.96176	1432.63940	391.28790	-130.07475	1688.73035	562.58893	-244.56796	1564.45557	525.84357	-39.72755	1531.54248	425.67245	-230.36700	1455.52893	693.09998	56.38619	1448.48425	535.80518	-113.32483	1328.59070	564.71411	-20.27207	1452.45129	706.82227	-324.06931	1103.53357	740.87115	146.82658	1121.54639	531.82538	-359.86130	876.98779	724.43414	128.41469	872.71759	477.91556	-171.73077	1050.11267	579.57123	-54.75657	1018.95209	521.96826	-21.64226	957.13519	789.45398	-301.23306	479.49890	647.51794	46.78444	545.34576	535.07440	-265.89026	124.80421	614.71112				
621	6.200	-151.63452	1432.84534	386.74207	-132.56401	1689.59192	557.00922	-247.21585	1565.27856	520.65643				-232.96846	1456.69458	688.13995	53.12185	1448.78711	530.60223	-116.67359	1329.25635	560.14801	-22.80884	1453.64014	702.11279	-327.52423	1104.88928	735.33038	143.30690	1121.84009	527.11035	-363.53033	879.62555	714.96313	124.02630	873.49347	471.38785	-174.82414	1051.14417	576.14801	-57.75420	1019.87500	518.07227	-24.07752	958.88568	785.74054	-302.71683	478.56308	648.18079	39.27982	548.95618	523.89996	-267.74094	123.17558	615.91449	113.30722	217.68974	682.78204	
622	6.210	-154.06799	1433.03210	382.23154	-134.68437	1689.87634	551.92145	-249.80443	1565.77393	515.98901	-44.43841	1531.03687	420.72888	-235.44276	1457.98657	682.94354	50.59042	1449.63831	526.49573	-119.22413	1329.80261	556.09912	-25.32588	1454.03735	697.09430	-330.70013	1106.44604	729.91272	140.24113	1122.27051	522.21796	-368.51154	882.76764	705.99927	120.49421	874.91705	464.66757	-177.59930	1051.81348	572.61572	-60.39017	1021.11108	514.01373	-25.74153	959.32977	781.63104	-303.94427	477.90015	649.91675	31.40036	552.12274	514.27820	-269.68988	122.01459	617.66132	104.54093	217.51656	670.70068	
623	6.220	-156.30016	1433.21436	377.59512	-137.54132	1690.78442	546.48169	-251.59496	1565.89258	510.89517	-46.68974	1531.01587	416.07449	-238.33818	1459.05017	678.67468	47.34043	1450.22156	520.46216	-122.16709	1330.50171	551.66705	-28.35310	1455.14893	692.36444	-334.11172	1107.88733	724.84344	137.07138	1122.64526	516.90161	-371.33954	886.04285	696.58594	117.12366	875.83368	458.30341	-180.21028	1052.15076	568.73438	-62.89871	1021.31689	511.27991	-28.33478	960.88092	778.09424	-305.24411	477.59250	651.57776	24.81992	555.87823	503.99722	-271.55252	120.92303	618.91730	95.07098	219.98163	654.49652	
624	6.230	-158.47307	1432.87195	373.35611	-139.94505	1691.22327	541.06281	-254.15237	1566.84680	505.50177	-49.38486	1531.78369	401.86261	-240.88945	1459.81665	673.63544	45.09037	1450.21802	516.34174	-124.83766	1330.94849	547.65839	-30.96487	1455.75049	687.86945	-337.17276	1109.23547	719.52795	135.09769	1123.27808	511.74930	-376.69379	890.02869	688.04285	113.72090	876.30768	451.87347	-183.03508	1052.48462	565.31482	-65.42722	1022.47961	507.13654	-29.88729	961.66241	774.23938	-305.71851	477.17273	652.91809	20.08132	559.42920	493.69064	-273.65598	119.29764	620.95929	86.06799	220.97124	637.55713	
625	6.240	-160.44580	1433.31372	368.17017	-141.70972	1691.68542	535.79150	-255.98615	1566.89893	500.23758	-51.52428	1531.77454	396.46405	-243.71014	1460.84143	669.03870	42.72985	1450.27319	512.81964	-126.89392	1331.16992	543.06763	-33.06680	1456.26514	683.22333	-340.90161	1110.56958	714.41687	133.10980	1123.59192	506.51096	-378.46066	892.57941	678.75983	110.89311	877.73907	444.87872	-185.42096	1052.73499	561.46082	-67.57209	1023.25848	503.45465	-31.61730	962.85870	770.27924	-306.24680	477.04828	655.20477	13.61630	562.49780	484.59128	-275.92258	118.97421	622.19922	77.70345	219.05350	625.43549	
